<svg width="326.56" height="511.999" xmlns="http://www.w3.org/2000/svg">

 <g>
  <title>background</title>
  <rect fill="none" id="canvas_background" height="513.999" width="328.56" y="-1" x="-1"/>
 </g>
 <g>
  <title>Layer 1</title>
  <g id="svg_1">
   <path id="svg_2" fill="#FF9737" d="m218.641,386.709c-0.816,-2.159 -2.885,-3.587 -5.192,-3.587l-98.899,0c-2.309,0 -4.375,1.428 -5.194,3.587c-4.157,10.99 -6.266,22.565 -6.266,34.405c0,38.873 23.042,73.976 58.701,89.428c0.705,0.305 1.457,0.457 2.208,0.457c0.752,0 1.504,-0.152 2.208,-0.457c35.66,-15.452 58.701,-50.554 58.701,-89.428c0.001,-11.844 -2.108,-23.419 -6.267,-34.405z"/>
   <path id="svg_3" fill="#FFD960" d="m200.446,379.352c-1.052,-1.136 -2.528,-1.782 -4.076,-1.782l-64.742,0c-1.548,0 -3.025,0.645 -4.076,1.782c-1.049,1.135 -1.579,2.659 -1.459,4.202c1.681,21.554 15.743,40.738 35.824,48.871c0.668,0.271 1.376,0.406 2.084,0.406c0.708,0 1.416,-0.135 2.084,-0.406c20.08,-8.133 34.14,-27.316 35.822,-48.871c0.117,-1.544 -0.412,-3.067 -1.461,-4.202z"/>
   <path id="svg_4" opacity="0.1" fill="#231F20" d="m121.598,427.947c0,-12.774 2.275,-25.264 6.763,-37.122c0.883,-2.33 3.113,-3.87 5.603,-3.87l84.765,0c-0.03,-0.081 -0.056,-0.164 -0.087,-0.246c-0.816,-2.159 -2.885,-3.587 -5.192,-3.587l-98.899,0c-2.309,0 -4.375,1.428 -5.194,3.587c-4.157,10.99 -6.266,22.565 -6.266,34.405c0,38.752 22.902,73.752 58.37,89.277c-24.808,-19.638 -39.863,-49.806 -39.863,-82.444z"/>
   <g id="svg_5">
    <path id="svg_6" fill="#004CFF" d="m328.78,395.97l0,-51.543c0,-22.857 -11.084,-37.559 -14.882,-41.925l-76.866,-83.428l0,152.156l80.955,37.293c3.02,1.172 10.793,2.713 10.793,-12.553z"/>
    <path id="svg_7" fill="#004CFF" d="m-0.781,395.97l0,-51.543c0,-22.857 11.084,-37.559 14.882,-41.925l76.866,-83.428l0,152.156l-80.953,37.293c-3.022,1.172 -10.795,2.713 -10.795,-12.553z"/>
   </g>
   <path id="svg_8" fill="#093F74" class="active-path" d="m163.999,102.143c-4.599,0 -8.328,-3.729 -8.328,-8.328l0,-86.487c0,-4.599 3.729,-8.328 8.328,-8.328s8.328,3.729 8.328,8.328l0,86.487c0,4.599 -3.729,8.328 -8.328,8.328z"/>
   <path id="svg_9" fill="#EEF4F4" d="m171.525,48.363l-15.052,0c-37.406,0 -67.728,30.323 -67.728,67.727l0,255.14c0,10.247 8.306,18.555 18.557,18.555l113.395,0c10.248,0 18.557,-8.308 18.557,-18.555l0,-201.492l0,-27.205l0,-26.444c-0.001,-37.404 -30.323,-67.726 -67.729,-67.726z"/>
   <path id="svg_10" fill="#093F74" class="active-path" d="m88.746,344.426l0,26.803c0,10.247 8.306,18.555 18.557,18.555l113.395,0c10.248,0 18.557,-8.308 18.557,-18.555l0,-26.803l-150.509,0z"/>
   <circle id="svg_11" fill="#004CFF" r="32.987999" cy="268.137" cx="164"/>
   <g id="svg_12">
    <path id="svg_13" opacity="0.1" fill="#231F20" d="m17.726,404.405l0,-51.543c0,-22.857 11.084,-37.559 14.882,-41.925l58.358,-63.341l0,-28.523l-76.866,83.428c-3.798,4.365 -14.882,19.067 -14.882,41.925l0,51.543c0,15.265 7.773,13.725 10.795,12.552l7.722,-3.558c-0.002,-0.186 -0.009,-0.365 -0.009,-0.558z"/>
    <path id="svg_14" opacity="0.1" fill="#231F20" d="m107.253,371.229l0,-255.14c0,-36.824 29.397,-66.763 66,-67.682c-0.576,-0.014 -1.147,-0.044 -1.728,-0.044l-15.052,0c-37.406,0 -67.728,30.323 -67.728,67.727l0,255.14c0,10.247 8.306,18.555 18.557,18.555l18.508,0c-10.251,-0.001 -18.557,-8.308 -18.557,-18.556z"/>
    <path id="svg_15" opacity="0.1" fill="#231F20" d="m149.519,268.141c0,-15.005 10.021,-27.662 23.733,-31.664c-2.937,-0.856 -6.04,-1.325 -9.253,-1.325c-18.22,0 -32.988,14.769 -32.988,32.989c0,18.219 14.768,32.988 32.988,32.988c3.214,0 6.316,-0.467 9.253,-1.325c-13.713,-4.002 -23.733,-16.658 -23.733,-31.663z"/>
   </g>
  </g>
 </g>
</svg>